<?xml version="1.0" encoding="UTF-8" standalone="no"?>
<svg width="868px" height="650px" viewBox="0 0 868 650" version="1.1" xmlns="http://www.w3.org/2000/svg" xmlns:xlink="http://www.w3.org/1999/xlink" xmlns:sketch="http://www.bohemiancoding.com/sketch/ns">
    <!-- Generator: Sketch 3.0.3 (7892) - http://www.bohemiancoding.com/sketch -->
    <title>owl-ribbon</title>
    <desc>Created with Sketch.</desc>
    <defs>
        <linearGradient x1="13.8063477%" y1="-3.80235677%" x2="88.4044719%" y2="87.8794511%" id="linearGradient-1">
            <stop stop-color="#E9F0E6" offset="0.56%"></stop>
            <stop stop-color="#DCDFED" offset="25.28%"></stop>
            <stop stop-color="#EDE0E5" offset="52.97%"></stop>
            <stop stop-color="#F2E1E3" offset="59.55%"></stop>
            <stop stop-color="#EEEFCB" offset="78.65%"></stop>
            <stop stop-color="#E9E0E2" offset="100%"></stop>
        </linearGradient>
        <linearGradient x1="13.4670878%" y1="87.0209941%" x2="84.2191858%" y2="-3.37439428%" id="linearGradient-2">
            <stop stop-color="#FFFFFF" offset="0.56%"></stop>
            <stop stop-color="#DCDFED" offset="25.28%"></stop>
            <stop stop-color="#EEEFF6" offset="46.52%"></stop>
            <stop stop-color="#FFFFFF" offset="59.55%"></stop>
            <stop stop-color="#E9E1E9" offset="78.65%"></stop>
            <stop stop-color="#EBF1F5" offset="100%"></stop>
        </linearGradient>
    </defs>
    <g id="Page-1" stroke="none" stroke-width="1" fill="none" fill-rule="evenodd" sketch:type="MSPage">
        <g id="owl" sketch:type="MSLayerGroup" transform="translate(1.000000, 1.000000)">
            <g id="Shape_1_xA0_Clipping_Path" transform="translate(0.000000, 468.000000)" fill="#D52027" sketch:type="MSShapeGroup">
                <path d="M153.919,0.148 C153.919,0.148 113.132,-1.204 74.973,12.054 C36.07,25.57 -0.221,53.7 -0.221,53.7 L55.451,85.585 L25.818,179.702 C25.818,179.702 59.885,152.343 97.661,139.22 C136.926,125.577 179.958,126.15 179.958,126.15 L153.919,0.148 L153.919,0.148 Z" id="Shape"></path>
            </g>
            <g id="Shape_6_xA0_Clipping_Path_4_" transform="translate(122.000000, 541.000000)" fill="#8E191C" sketch:type="MSShapeGroup">
                <path d="M46.577,0.179 L-0.094,11.934 L57.65,53.766 L46.577,0.179 Z" id="Shape"></path>
            </g>
            <g id="Shape_1_copy_8_xA0_Clipping_Path" transform="translate(685.000000, 468.000000)" fill="#D52027" sketch:type="MSShapeGroup">
                <path d="M180,53.701 C180,53.701 143.71,25.57 104.806,12.055 C66.647,-1.203 25.86,0.149 25.86,0.149 L-0.179,126.149 C-0.179,126.149 41.35,125.055 79.884,138.445 C118.419,151.833 153.961,179.704 153.961,179.704 L124.328,85.587 L180,53.701 L180,53.701 Z" id="Shape"></path>
            </g>
            <g id="Shape_6_copy_xA0_Clipping_Path_4_" transform="translate(685.000000, 541.000000)" fill="#8E191C" sketch:type="MSShapeGroup">
                <path d="M11.201,0.179 L0.128,53.766 L57.873,11.934 L11.201,0.179 Z" id="Shape"></path>
            </g>
            <g id="Rectangle_3_xA0_Clipping_Path" transform="translate(122.000000, 391.000000)" fill="#D52027" sketch:type="MSShapeGroup">
                <path d="M310.968,0.002 C155.534,0.002 -0.094,29.989 -0.094,29.989 L-0.094,161.933 C-0.094,161.933 155.533,131.946 310.968,131.946 C466.016,131.946 620.873,161.933 620.873,161.933 L620.873,29.989 C620.873,29.989 466.016,0.002 310.968,0.002 L310.968,0.002 Z" id="Shape"></path>
            </g>
            <g id="Path-8" transform="translate(140.000000, 0.000000)" sketch:type="MSShapeGroup">
                <path d="M279.313,455.383 C272.375,455.383 263.009,445.209 259.304,440.834 L259.157,440.65 L238.248,413.165 L143.521,428.656 C123.114,431.991 97.072,421.902 84.233,405.681 L13.774,316.644 C6.208,307.083 0.281,290.048 0.281,277.862 L0.281,238.559 L36.444,148.324 L36.444,26.277 C36.444,15.279 40.363,7.002 47.479,2.969 C54.595,-1.065 63.712,-0.173 73.15,5.478 L134.161,42.014 L279.847,14.41 L425.091,42.014 L486.103,5.479 C495.54,-0.173 504.656,-1.064 511.773,2.969 C518.889,7.002 522.808,15.28 522.808,26.277 L522.808,148.325 L558.971,238.56 L558.971,277.863 C558.971,290.048 553.044,307.083 545.477,316.645 L475.018,405.682 C462.182,421.903 436.143,431.991 415.731,428.657 L321,413.165 L298.967,442.016 L298.824,441.906 C294.523,446.642 285.717,455.385 279.317,455.385 C279.316,455.383 279.314,455.383 279.313,455.383 L279.313,455.383 Z M266.246,435.104 C271.047,440.745 277.222,446.069 279.317,446.377 C281.463,446.072 287.936,440.657 292.98,434.937 L293.02,434.973 L317.122,403.41 L417.184,419.773 C434.369,422.587 457.149,413.758 467.961,400.095 L538.42,311.059 C544.681,303.147 549.971,287.944 549.971,277.862 L549.971,240.296 L513.808,150.061 L513.808,26.277 C513.808,18.661 511.509,13.164 507.335,10.799 C503.16,8.433 497.261,9.286 490.727,13.2 L426.777,51.494 L279.845,23.57 L132.474,51.494 L68.527,13.201 C61.991,9.286 56.092,8.434 51.917,10.8 C47.743,13.165 45.444,18.662 45.444,26.278 L45.444,150.063 L9.281,240.298 L9.281,277.864 C9.281,287.947 14.571,303.149 20.831,311.061 L91.29,400.097 C102.102,413.76 124.88,422.592 142.067,419.775 L242.133,403.411 L266.246,435.104 L266.246,435.104 Z" id="Shape" fill="#BD94C0"></path>
                <path d="M279.314,454.532 C272.545,454.532 262.784,443.627 259.953,440.284 L259.833,440.136 L238.614,412.243 L143.383,427.816 C123.257,431.114 97.564,421.155 84.9,405.153 L14.441,316.117 C6.978,306.686 1.132,289.883 1.132,277.863 L1.132,238.724 L37.295,148.489 L37.295,26.277 C37.295,15.599 41.061,7.585 47.899,3.709 C54.739,-0.167 63.55,0.72 72.714,6.209 L134.002,42.91 L279.847,15.275 L425.25,42.91 L486.539,6.209 C495.7,0.722 504.515,-0.167 511.353,3.709 C518.191,7.584 521.957,15.599 521.957,26.277 L521.957,148.49 L558.12,238.725 L558.12,277.864 C558.12,289.884 552.273,306.687 544.81,316.118 L474.351,405.154 C461.687,421.156 436,431.114 415.868,427.817 L320.633,412.243 L298.292,441.496 L298.146,441.384 C294.382,445.509 285.446,454.533 279.316,454.533 L279.314,454.533 L279.314,454.532 Z M265.584,435.638 C270.747,441.711 277.277,447.229 279.315,447.234 C281.391,447.228 288.208,441.635 293.618,435.501 L293.66,435.538 L317.488,404.333 L417.046,420.614 C434.496,423.461 457.644,414.504 468.627,400.625 L539.086,311.589 C545.447,303.551 550.821,288.107 550.821,277.864 L550.821,240.134 L514.658,149.899 L514.658,26.277 C514.658,18.341 512.206,12.582 507.755,10.059 C503.302,7.535 497.099,8.392 490.289,12.47 L426.617,50.598 L279.845,22.705 L132.633,50.599 L68.963,12.472 C62.153,8.393 55.95,7.537 51.497,10.06 C47.045,12.583 44.593,18.343 44.593,26.278 L44.593,149.899 L8.43,240.134 L8.43,277.864 C8.43,288.107 13.804,303.551 20.164,311.589 L90.623,400.625 C101.606,414.503 124.745,423.471 142.205,420.614 L241.767,404.332 L265.584,435.638 L265.584,435.638 Z" id="Shape" fill="url(#linearGradient-1)"></path>
                <g id="Group" transform="translate(3.000000, 3.000000)" fill="url(#linearGradient-2)">
                    <g id="Clipped">
                        <path d="M293.355,434.914 C293.355,434.914 281.919,447.883 276.316,447.883 C270.712,447.885 259.738,434.926 259.738,434.926 L237.191,405.287 L139.795,421.215 C121.124,424.27 96.498,414.717 84.762,399.889 L14.303,310.853 C7.386,302.112 1.782,286.003 1.782,274.864 L1.782,236.429 L37.945,146.194 L37.945,23.277 C37.945,4.03 51.33,-3.548 67.84,6.339 L130.319,43.754 L276.846,15.99 L422.934,43.754 L485.414,6.339 C501.924,-3.549 515.308,4.03 515.308,23.277 L515.308,146.194 L551.471,236.429 L551.471,274.864 C551.471,286.003 545.866,302.113 538.949,310.853 L468.49,399.889 C456.756,414.717 432.13,424.27 413.458,421.215 L316.062,405.287 L292.623,435.982 L292.403,436.267" id="Shape"></path>
                    </g>
                </g>
            </g>
            <path d="M446.301,363.121 L491.329,381.891 C491.329,381.891 554.037,406.428 583.976,389.893 C615.364,372.561 675.236,280.932 675.236,280.932 L675.236,228.682 L639.405,141.533 L641.716,12.786 L558.648,56.472 L422.422,32.4 L286.603,56.472 L203.535,12.786 L205.847,141.533 L170.014,228.682 L170.014,280.932 C170.014,280.932 229.885,372.561 261.274,389.893 C291.213,406.428 353.921,381.891 353.921,381.891 L394.963,363.121 L420.097,417.359 L446.301,363.121 L446.301,363.121 Z" id="Path-2" fill="#D8D9D8" sketch:type="MSShapeGroup"></path>
            <path d="M409.765,309.093 L421.049,300.927 L431.315,308.246 L431.26,241.977 L458.135,155.997 L558.017,57.669 L422.804,32.761 L283.873,56.052 L383.792,157.912 L408.337,240.246 L409.765,309.093 L409.765,309.093 Z" id="Path-6" stroke="#8B582B" fill="#8B582B" sketch:type="MSShapeGroup"></path>
            <path d="M420.634,302.068 L378.944,332.863 L420.634,416.57 L462.24,332.578 L420.634,302.068 L420.634,302.068 Z" id="Path-7" stroke="#010101" fill="#010101" sketch:type="MSShapeGroup"></path>
            <ellipse id="Oval-8" stroke="#979797" fill="#010101" sketch:type="MSShapeGroup" cx="545.479" cy="254.729" rx="76.479" ry="80.729"></ellipse>
            <ellipse id="Oval-7" stroke="#979797" fill="#010101" sketch:type="MSShapeGroup" cx="310.479" cy="254.729" rx="76.479" ry="80.729"></ellipse>
            <ellipse id="Oval-6" stroke="#979797" fill="#D8D9D8" sketch:type="MSShapeGroup" cx="543.245" cy="253.307" rx="21.245" ry="22.307"></ellipse>
            <ellipse id="Oval-2" stroke="#979797" fill="#D8D9D8" sketch:type="MSShapeGroup" cx="310.244" cy="253.307" rx="21.244" ry="22.307"></ellipse>
            <rect id="Rectangle-path" sketch:type="MSShapeGroup" x="140" y="416" width="608.715" height="188"></rect>
        </g>
        <g id="Imported-Layers" sketch:type="MSLayerGroup" transform="translate(145.000000, 432.000000)" fill="#FFFFFF">
            <path d="M28.46,1.633 L34.478,22.441 L40.598,1.633 L43.455,2.449 L36.008,27.746 L47.228,65.896 L65.998,1.633 L68.854,2.449 L47.228,76.504 L34.478,32.948 L21.829,76.504 L0.204,2.449 L3.061,1.633 L21.829,65.896 L32.948,27.746 L25.603,2.449 L28.46,1.633" id="Fill-1" sketch:type="MSShapeGroup"></path>
            <path d="M100.877,2.041 L103.938,2.041 L103.938,73.444 L100.877,73.444 L100.877,2.041 Z" id="Fill-2" sketch:type="MSShapeGroup"></path>
            <path d="M139.74,61.408 C142.8,68.344 149.328,71.608 156.672,71.608 C166.975,71.608 174.83,64.773 174.83,55.084 C174.83,46.516 164.833,42.027 156.672,39.171 C147.492,36.008 136.476,30.908 136.476,20.402 C136.476,8.875 145.758,0.816 157.692,0.816 C166.261,0.816 174.013,4.693 177.481,12.853 L174.625,14.078 C171.565,7.141 165.037,3.877 157.692,3.877 C147.39,3.877 139.536,10.711 139.536,20.402 C139.536,28.971 149.532,33.459 157.692,36.315 C166.873,39.477 177.89,44.577 177.89,55.084 C177.89,66.609 168.607,74.668 156.672,74.668 C148.002,74.668 140.352,70.792 136.883,62.632 L139.74,61.408" id="Fill-3" sketch:type="MSShapeGroup"></path>
            <path d="M210.424,73.444 L210.424,2.041 L250.818,2.041 L250.818,5.102 L213.485,5.102 L213.485,32.03 L244.086,32.03 L244.086,35.09 L213.485,35.09 L213.485,70.385 L250.818,70.385 L250.818,73.444 L210.424,73.444" id="Fill-4" sketch:type="MSShapeGroup"></path>
            <path d="M308.854,1.734 C327.826,1.734 336.293,9.385 336.293,19.382 C336.293,26.522 331.906,32.541 322.521,35.397 C335.17,38.049 342.412,44.781 342.412,53.859 C342.412,65.896 329.866,73.547 308.854,73.547 C306.609,73.547 303.65,73.444 300.998,73.24 L300.998,2.041 C303.65,1.837 306.609,1.734 308.854,1.734 L308.854,1.734 Z M304.059,4.897 L304.059,34.07 L309.873,34.07 C326.092,34.07 333.232,27.542 333.232,19.382 C333.232,11.018 325.786,4.795 308.854,4.795 C307.426,4.795 305.793,4.795 304.059,4.897 L304.059,4.897 Z M339.352,53.859 C339.352,43.455 327.826,37.131 308.751,37.131 L304.059,37.131 L304.059,70.385 C305.793,70.486 307.426,70.486 308.854,70.486 C327.826,70.486 339.352,64.264 339.352,53.859 L339.352,53.859 Z" id="Fill-5" sketch:type="MSShapeGroup"></path>
            <path d="M381.985,0.307 L409.322,72.934 L406.467,73.955 L399.021,54.166 L364.951,54.166 L357.504,73.955 L354.648,72.934 L381.985,0.307 L381.985,0.307 Z M366.072,51.105 L397.797,51.105 L381.985,8.977 L366.072,51.105 L366.072,51.105 Z" id="Fill-6" sketch:type="MSShapeGroup"></path>
            <path d="M467.053,37.742 C467.053,55.797 455.526,73.75 432.473,73.75 C430.229,73.75 426.25,73.648 423.599,73.444 L423.599,2.041 C426.25,1.837 430.229,1.633 432.473,1.633 C455.526,1.633 467.053,19.586 467.053,37.742 L467.053,37.742 Z M463.992,37.742 C463.992,21.218 453.485,4.693 432.473,4.693 C431.045,4.693 428.291,4.795 426.658,4.897 L426.658,70.588 C428.393,70.69 431.045,70.69 432.473,70.69 C453.485,70.69 463.992,54.268 463.992,37.742 L463.992,37.742 Z" id="Fill-7" sketch:type="MSShapeGroup"></path>
            <path d="M523.865,42.027 L523.865,73.444 C521.213,73.648 517.234,73.75 514.991,73.75 C491.937,73.75 480.411,55.797 480.411,37.742 C480.411,19.586 491.937,1.633 514.991,1.633 C517.234,1.633 521.213,1.837 523.865,2.041 L523.865,5.203 C520.398,4.795 516.419,4.693 514.991,4.693 C493.977,4.693 483.472,21.218 483.472,37.742 C483.472,54.268 493.977,70.69 514.991,70.69 C516.419,70.69 519.071,70.69 520.805,70.588 L520.805,42.027 L523.865,42.027" id="Fill-8" sketch:type="MSShapeGroup"></path>
            <path d="M539.877,73.444 L539.877,2.041 L580.271,2.041 L580.271,5.102 L542.937,5.102 L542.937,32.03 L573.538,32.03 L573.538,35.09 L542.937,35.09 L542.937,70.385 L580.271,70.385 L580.271,73.444 L539.877,73.444" id="Fill-9" sketch:type="MSShapeGroup"></path>
        </g>
    </g>
</svg>